<svg xmlns="http://www.w3.org/2000/svg" xmlns:xlink="http://www.w3.org/1999/xlink" viewBox="0 0 212.21 212.21"><defs><style>.cls-1{isolation:isolate;}.cls-2{fill:url(#linear-gradient);}.cls-3{fill:url(#linear-gradient-2);}.cls-4,.cls-5{fill:none;stroke:#fff;stroke-linecap:round;stroke-miterlimit:10;}.cls-4{stroke-width:2px;mix-blend-mode:overlay;}.cls-5{stroke-width:3px;mix-blend-mode:soft-light;}.cls-6{fill:url(#linear-gradient-3);}.cls-7{fill:url(#linear-gradient-4);}</style><linearGradient id="linear-gradient" x1="73.25" y1="74.17" x2="231.23" y2="227.74" gradientUnits="userSpaceOnUse"><stop offset="0" stop-color="#7b1482"/><stop offset="0.16" stop-color="#781884" stop-opacity="0.96"/><stop offset="0.34" stop-color="#6f248c" stop-opacity="0.86"/><stop offset="0.53" stop-color="#5f3898" stop-opacity="0.68"/><stop offset="0.73" stop-color="#4a54a9" stop-opacity="0.43"/><stop offset="0.93" stop-color="#2e77be" stop-opacity="0.12"/><stop offset="1" stop-color="#2484c6" stop-opacity="0"/></linearGradient><linearGradient id="linear-gradient-2" x1="74.7" y1="75.58" x2="225.71" y2="222.37" gradientUnits="userSpaceOnUse"><stop offset="0" stop-color="#9f1b63"/><stop offset="0.14" stop-color="#9b1e66" stop-opacity="0.97"/><stop offset="0.3" stop-color="#91276f" stop-opacity="0.88"/><stop offset="0.47" stop-color="#7f377d" stop-opacity="0.74"/><stop offset="0.65" stop-color="#664c91" stop-opacity="0.54"/><stop offset="0.83" stop-color="#4667aa" stop-opacity="0.28"/><stop offset="1" stop-color="#2484c6" stop-opacity="0"/></linearGradient><linearGradient id="linear-gradient-3" x1="47.02" y1="47" x2="121.52" y2="136" gradientUnits="userSpaceOnUse"><stop offset="0" stop-color="#fad25a"/><stop offset="1" stop-color="#ee2f50"/></linearGradient><linearGradient id="linear-gradient-4" x1="64.77" y1="45.25" x2="170.3" y2="105" xlink:href="#linear-gradient-3"/></defs><title>PyPlay-Icon</title><g class="cls-1"><g id="Layer_2" data-name="Layer 2"><g id="OBJECT"><circle class="cls-2" cx="106.11" cy="106.11" r="106.11"/><circle class="cls-3" cx="106.11" cy="106.11" r="101.42"/><circle class="cls-4" cx="106.11" cy="106.11" r="95.77"/><path class="cls-5" d="M168.13,92.09a5.75,5.75,0,0,0-8.63,5v6.81a8.63,8.63,0,0,1-7.87,8.71,8.44,8.44,0,0,1-9-8.42V82.28a8.45,8.45,0,1,0-16.89,0v46.25a8.64,8.64,0,0,1-7.87,8.7,8.43,8.43,0,0,1-9-8.41l0-36.66a8.45,8.45,0,0,0-8.45-8.47h0A8.45,8.45,0,0,0,92,92.13l0,8.07a8.62,8.62,0,0,1-7.87,8.7,8.44,8.44,0,0,1-9-8.42V49.14a8.44,8.44,0,1,0-16.88,0v106.4A16.5,16.5,0,0,0,83,169.83l85.15-49.16A16.5,16.5,0,0,0,168.13,92.09ZM92,136.56a8.44,8.44,0,1,1-16.87,0V121.09a8.44,8.44,0,1,1,16.87,0Z"/><path class="cls-6" d="M168.13,92.09a5.75,5.75,0,0,0-8.63,5v6.81a8.63,8.63,0,0,1-7.87,8.71,8.44,8.44,0,0,1-9-8.42V82.28a8.45,8.45,0,1,0-16.89,0v46.25a8.64,8.64,0,0,1-7.87,8.7,8.43,8.43,0,0,1-9-8.41l0-36.66a8.45,8.45,0,0,0-8.45-8.47h0A8.45,8.45,0,0,0,92,92.13l0,8.07a8.62,8.62,0,0,1-7.87,8.7,8.44,8.44,0,0,1-9-8.42V49.14a8.44,8.44,0,1,0-16.88,0v106.4A16.5,16.5,0,0,0,83,169.83l85.15-49.16A16.5,16.5,0,0,0,168.13,92.09ZM92,136.56a8.44,8.44,0,1,1-16.87,0V121.09a8.44,8.44,0,1,1,16.87,0Z"/><path class="cls-5" d="M100.52,76.63h0a8.44,8.44,0,0,1-8.44-8.44v-5.4a8.44,8.44,0,0,1,8.44-8.43h0A8.44,8.44,0,0,1,109,62.79v5.4A8.44,8.44,0,0,1,100.52,76.63Z"/><path class="cls-7" d="M100.52,76.63h0a8.44,8.44,0,0,1-8.44-8.44v-5.4a8.44,8.44,0,0,1,8.44-8.43h0A8.44,8.44,0,0,1,109,62.79v5.4A8.44,8.44,0,0,1,100.52,76.63Z"/></g></g></g></svg>